# xmcd
#
# Track frame offsets: 
#        150
#        14370
#        29766
#        42106
#        58773
#        75244
#        92752
#        108936
#        126355
#        142241
#        158029
#        174759
#        189601
#        204572
#        216385
#        230800
#        247503
#
# Disc length: 3547 seconds
#
# Revision: 2
# Processed by: cddbd v1.5.2PL0 Copyright (c) Steve Scherf et al.
# Submitted via: ExactAudioCopyFreeDBPlugin 1.0
#
DISCID=e70dd911
DTITLE=Various Artist - 80s Country Crossovers
DYEAR=2009
DGENRE=Crossover
TTITLE0=Eddie Rabbitt - I Love A Rainy Night
TTITLE1=Juice Newton - Queen Of Hearts
TTITLE2=Dolly Parton - 9 To 5
TTITLE3=The Oak Ridge Boys - Elvira
TTITLE4=Alabama - Mountain Music
TTITLE5=Nitty Gritty Dirt Band - Make A Little Magic
TTITLE6=Johnny Lee - Lookin' For Love
TTITLE7=Kenny Rogers - Lady
TTITLE8=Willie Nelson - Always On My Mind
TTITLE9=The Judds - Why Not Me
TTITLE10=Ronnie Milsap - Smoky Mountain Rain
TTITLE11=Rosanne Cash - Seven Year Ache
TTITLE12=Sylvia - Nobody
TTITLE13=The Gatlin Brothers - All The Gold In California
TTITLE14=Earl Thomas Conley - Fire And Smoke
TTITLE15=Keith Whitley - When You Say Nothing At All
TTITLE16=Dolly Parton and Kenny Rogers - Islands In The Stream
EXTD=YEAR: 2009
EXTT0=
EXTT1=
EXTT2=
EXTT3=
EXTT4=
EXTT5=
EXTT6=
EXTT7=
EXTT8=
EXTT9=
EXTT10=
EXTT11=
EXTT12=
EXTT13=
EXTT14=
EXTT15=
EXTT16=
PLAYORDER=
